<?xml version="1.0" encoding="utf-8"?>
<!-- Generator: Adobe Illustrator 24.0.1, SVG Export Plug-In . SVG Version: 6.00 Build 0)  -->
<svg version="1.1" id="Слой_1" xmlns="http://www.w3.org/2000/svg" xmlns:xlink="http://www.w3.org/1999/xlink" x="0px" y="0px"
	 viewBox="0 0 16 16" style="enable-background:new 0 0 16 16;" xml:space="preserve">
<title>IL_FORNO_logo1</title>
<path d="M3.1,5.4c0,0,0.1,0,0.1-0.1c0,0,0.1-0.1,0.1-0.1c0,0,0-0.1,0-0.1c0,0-0.1-0.1-0.1,0c0,0-0.1,0-0.1,0C3,5.1,3,5.1,3,5.2
	c0,0,0,0.1,0,0.1C3,5.3,3.1,5.4,3.1,5.4z"/>
<path d="M4.2,5.4c0.2-0.4,0.4-0.7,0.7-1c-0.3,0-0.6,0.3-1,0.9c-0.2,0.3-0.4,0.7-0.5,1C3.3,6.5,3.2,6.7,3.1,7l0,0
	C2.8,7.3,2.6,7.5,2.5,7.5c-0.1,0-0.2-0.1-0.2-0.2c0,0,0-0.1,0-0.1c0-0.1,0-0.1,0-0.2l0.1-0.2c0-0.1,0.1-0.1,0.1-0.2
	c0-0.1,0.1-0.1,0.1-0.2c0,0,0.1-0.1,0.1-0.2s0.1-0.1,0.1-0.2c0,0,0-0.1,0.1-0.2L3,5.8c0,0,0,0,0-0.1c0-0.1,0-0.1-0.2,0
	c-0.1,0-0.2,0.1-0.3,0.2c0,0,0,0-0.1,0.1c0,0-0.1,0.1-0.1,0.2S2.4,6.2,2.3,6.3c0,0.1-0.1,0.2-0.1,0.2c0,0.1-0.1,0.2-0.1,0.3
	C2.1,6.9,2,7,2,7.1C2,7.4,2.1,7.6,2.3,7.6c0.1,0,0.2,0,0.3-0.1c0.1,0,0.2-0.1,0.2-0.2C2.9,7.3,3,7.2,3,7.2c0,0.2,0,0.4,0.1,0.4
	c0.1,0.1,0.2,0.1,0.3,0c0.1,0,0.2-0.1,0.3-0.2C3.9,7.3,4,7.2,4.1,7.1c0,0,0.1-0.1,0.2-0.2c0.1-0.1,0.1-0.1,0.1-0.1c0,0,0-0.1,0-0.1
	c0,0,0,0-0.1,0C4.1,6.9,4,7.1,3.9,7.2C3.7,7.4,3.6,7.5,3.4,7.5c-0.1,0-0.1,0-0.1-0.1c0-0.1,0-0.3,0.1-0.4C3.5,6.5,3.8,6,4.2,5.4
	L4.2,5.4z"/>
<path d="M6.7,5.1C6.7,5,6.8,4.9,6.9,4.9C7,4.9,7,4.8,7.1,4.8c0.1,0,0.2,0,0.3,0c0.4,0,0.6,0,0.7,0c0-0.1,0-0.1-0.1-0.2
	c0,0-0.1-0.1-0.3-0.1c-0.4,0-0.8,0-1.2,0.1c-0.2,0-0.4,0.1-0.4,0.1c0,0.1,0.1,0.1,0.4,0.1C6.5,5,6.3,5.2,6.2,5.4
	C5.9,5.7,5.7,6,5.5,6.4c-0.2,0.4-0.3,0.7-0.3,1c0,0.2,0.1,0.3,0.3,0.3c0-0.3,0.1-0.5,0.1-0.8c0.1-0.2,0.1-0.4,0.2-0.6
	c0.1,0,0.2,0,0.6,0c0.3,0,0.5,0,0.6,0c0-0.1,0-0.1-0.1-0.1c-0.1,0-0.2,0-0.3,0c-0.1,0-0.3,0-0.4,0c-0.1,0-0.2,0-0.3,0
	c0.1-0.3,0.3-0.5,0.5-0.8C6.5,5.3,6.6,5.2,6.7,5.1L6.7,5.1z"/>
<path d="M14,6c0-0.2-0.2-0.3-0.4-0.3c-0.2,0-0.4,0.1-0.6,0.3c-0.2,0.2-0.4,0.4-0.5,0.7c0,0.1-0.1,0.1-0.1,0.2
	C12.3,6.9,12.2,7,12.2,7c-0.3,0.3-0.5,0.5-0.6,0.5c-0.1,0-0.1-0.1,0-0.3c0.1-0.2,0.2-0.4,0.3-0.5c0,0,0-0.1,0.1-0.1l0.1-0.1
	c0,0,0-0.1,0.1-0.1c0,0,0-0.1,0.1-0.1c0,0,0-0.1,0-0.1c0,0,0-0.1,0-0.1c0,0,0-0.1,0-0.1c0-0.1,0-0.1-0.1-0.2c0,0-0.1-0.1-0.2-0.1
	c-0.1,0-0.1,0-0.2,0.1c-0.1,0-0.2,0.1-0.2,0.2C11.6,6,11.5,6,11.4,6.1s-0.1,0.1-0.2,0.2c-0.1,0.1-0.1,0.2-0.2,0.2l-0.2,0.2
	c-0.1,0.1-0.1,0.1-0.1,0.1c0.1-0.2,0.2-0.4,0.4-0.8c0-0.1,0.1-0.1,0.1-0.2c0-0.1,0.1-0.1,0.1-0.2s0-0.1,0-0.1c-0.1,0-0.2,0-0.2,0
	c-0.1,0-0.2,0.1-0.2,0.2c-0.1,0.2-0.2,0.4-0.4,0.8c0,0,0,0,0,0c-0.1,0.1-0.1,0.2-0.2,0.2C10.2,7.2,10,7.3,9.8,7.4
	c-0.1,0-0.2,0.1-0.2,0c0,0,0-0.1,0-0.2C9.7,7.1,9.9,6.8,10,6.6c0.1-0.1,0.1-0.2,0.2-0.4c0-0.1,0-0.2,0-0.3C10.1,5.9,10,5.9,9.9,5.9
	c-0.1,0-0.2-0.1-0.3-0.1c0-0.3-0.1-0.4-0.2-0.4c-0.1,0-0.2,0.1-0.1,0.2c0,0.1,0.1,0.2,0.2,0.2c0,0,0,0.1-0.1,0.1S9.4,6,9.4,6
	C9.3,6.1,9.2,6.2,9,6.2c-0.1,0-0.3,0-0.4-0.1c0-0.1,0-0.2-0.1-0.3C8.4,5.8,8.3,5.7,8.2,5.7C8,5.7,7.8,5.8,7.6,6
	C7.4,6.2,7.2,6.4,7.1,6.7C7,6.9,6.9,7.1,7,7.4c0,0.2,0.2,0.3,0.4,0.3c0.2,0,0.4-0.1,0.7-0.3C8.2,7.2,8.4,7,8.5,6.7
	c0.1-0.1,0.1-0.3,0.1-0.4c0.1,0.1,0.3,0.1,0.4,0c0.1,0,0.3-0.1,0.4-0.3c0,0,0-0.1,0.1-0.1s0.1-0.1,0.1-0.1c0,0,0.1,0.1,0.2,0.1
	c0.1,0.1,0.1,0.2,0,0.5L9.6,6.6C9.5,6.8,9.5,6.9,9.4,7c0,0.1-0.1,0.1-0.1,0.2c-0.1,0.2-0.1,0.3,0,0.4C9.5,7.7,9.7,7.7,10,7.4
	c0.1-0.1,0.3-0.3,0.4-0.4c-0.1,0.3-0.2,0.5-0.3,0.7c0.1,0,0.1,0,0.2,0c0.1,0,0.2,0,0.2-0.1c0.1-0.2,0.2-0.4,0.2-0.4
	c0.2-0.2,0.3-0.5,0.5-0.7c0.1-0.1,0.2-0.2,0.4-0.4c0.2-0.2,0.3-0.3,0.3-0.3c0,0,0,0,0,0c0,0.1-0.1,0.2-0.2,0.4
	c-0.1,0.2-0.3,0.4-0.4,0.6c-0.1,0.1-0.2,0.3-0.2,0.5c0,0.2,0.1,0.3,0.2,0.3c0.1,0,0.3-0.1,0.5-0.2c0.1-0.1,0.2-0.2,0.3-0.3L12.3,7
	c0,0.1,0,0.2,0,0.3c0,0.2,0.2,0.3,0.4,0.3c0.2,0,0.4-0.1,0.7-0.3c0.2-0.2,0.4-0.4,0.5-0.6C14,6.5,14,6.3,14,6L14,6z M8.3,6.8
	L8.3,6.8C8.2,7,8.1,7.2,7.9,7.4C7.7,7.5,7.6,7.6,7.4,7.6c-0.1,0-0.1-0.1-0.1-0.3c0-0.2,0.1-0.4,0.2-0.6c0.1-0.2,0.2-0.4,0.3-0.5
	C7.9,6,8.1,5.9,8.2,5.9C8.3,6,8.4,6.1,8.5,6.2C8.5,6.4,8.4,6.6,8.3,6.8z M13.8,6.2L13.8,6.2c0,0.2-0.1,0.4-0.2,0.6
	c-0.1,0.2-0.2,0.4-0.4,0.5c-0.2,0.2-0.3,0.2-0.5,0.2c-0.1,0-0.1-0.1-0.1-0.3c0-0.2,0.1-0.4,0.2-0.6c0.1-0.2,0.2-0.4,0.4-0.6
	c0.2-0.1,0.3-0.2,0.4-0.2C13.8,5.9,13.8,6,13.8,6.2L13.8,6.2z"/>
<path d="M16,9.2C16,9.2,16,9.2,16,9.2C14,9,11.1,8.8,8,8.8S2,9,0,9.2c0,0-0.1,0,0-0.1c1.6-0.4,4.5-0.6,8-0.6S14.4,8.8,16,9.2L16,9.2
	z"/>
<path d="M10.9,10.1C10.9,10.1,10.9,10,10.9,10.1C11,10,11,10,11,10c0,0,0-0.1,0-0.1c0,0,0,0-0.1,0c0,0-0.1,0-0.1,0c0,0,0,0,0,0.1
	C10.8,10,10.8,10,10.9,10.1C10.8,10,10.8,10.1,10.9,10.1L10.9,10.1z"/>
<path d="M12.2,10.9C12.2,10.9,12.2,10.9,12.2,10.9c0,0-0.1,0.1-0.2,0.1c-0.1,0.1-0.2,0.2-0.3,0.3l-0.1,0c-0.1,0-0.1-0.1,0-0.2
	c0,0,0.1-0.1,0.1-0.2c0-0.1,0.1-0.1,0.1-0.2c0,0,0,0,0-0.1c0,0,0,0,0,0c0,0,0,0-0.1,0c0,0-0.1,0-0.1,0l-0.1,0.1
	c-0.1,0.2-0.3,0.3-0.5,0.5c-0.1,0.1-0.2,0.1-0.2,0.1c0,0,0-0.1,0-0.2c0.1-0.2,0.2-0.4,0.4-0.5c0.1-0.1,0.1-0.1,0.2-0.2
	c0.1,0,0.1-0.1,0.2-0.1c0.1,0,0.1,0,0.1,0.1c0,0,0,0,0,0c0,0,0,0,0.1,0c0,0,0-0.1,0-0.1c-0.1-0.1-0.2-0.1-0.3-0.1
	c-0.1,0-0.3,0.1-0.4,0.2c-0.1,0.1-0.3,0.3-0.4,0.4c0,0,0,0,0,0.1c0,0,0,0-0.1,0.1L10.8,11c-0.2,0.2-0.3,0.3-0.4,0.3
	c-0.1,0-0.1,0-0.1-0.1c0,0,0-0.1,0-0.1c0,0,0-0.1,0-0.1c0,0,0-0.1,0-0.1c0,0,0-0.1,0-0.1l0.1-0.1c0,0,0-0.1,0.1-0.1
	c0,0,0-0.1,0.1-0.1s0,0,0.1-0.1l0-0.1c0,0,0,0,0,0c0,0,0,0-0.1,0c-0.1,0-0.1,0-0.2,0.1c0,0,0,0,0,0.1l-0.1,0.1c0,0,0,0.1-0.1,0.1
	c0,0,0,0.1-0.1,0.1s0,0.1,0,0.1c0,0,0,0,0,0c0,0.1-0.1,0.1-0.1,0.1c-0.1,0.1-0.2,0.2-0.3,0.3c-0.1,0-0.1,0-0.1,0c0,0,0,0,0-0.1
	c0.1-0.1,0.1-0.3,0.2-0.4c0-0.1,0.1-0.1,0.1-0.2c0-0.1,0-0.1,0-0.2c0,0-0.1-0.1-0.2-0.1c-0.1,0-0.1,0-0.2-0.1c0-0.2,0-0.2-0.1-0.2
	s-0.1,0-0.1,0.1c0,0.1,0.1,0.1,0.1,0.1c0,0,0,0,0,0.1c0,0,0,0.1,0,0.1c0,0.1-0.1,0.1-0.2,0.1c-0.1,0-0.2,0-0.2,0
	c0-0.1,0-0.1-0.1-0.2c0-0.1-0.1-0.1-0.2-0.1c-0.1,0-0.3,0.1-0.4,0.2c-0.1,0.1-0.2,0.2-0.3,0.4c0,0,0,0.1,0,0.1L8.1,11
	c-0.1,0.1-0.2,0.2-0.3,0.3c0,0-0.1,0-0.1,0c-0.1,0-0.1-0.2,0-0.4c0.1-0.2,0.2-0.3,0.3-0.6h0.3c0,0,0.1,0,0.1,0c0,0,0,0,0,0H8
	c0.1-0.2,0.2-0.3,0.3-0.5C8.2,9.8,8,9.9,8,10c0,0.1-0.1,0.1-0.2,0.2H7.3c0.1-0.2,0.2-0.3,0.3-0.5c-0.2,0-0.3,0.1-0.4,0.2
	c0,0.1-0.1,0.1-0.2,0.2H7h0c0,0-0.1,0,0,0s0,0,0,0h0.1c-0.1,0.2-0.2,0.4-0.3,0.6c0,0-0.1,0.1-0.1,0.1c-0.1,0.1-0.2,0.2-0.3,0.3
	l-0.1,0c-0.1,0-0.1-0.1,0-0.2c0,0,0.1-0.1,0.1-0.2s0.1-0.1,0.1-0.2c0,0,0,0,0-0.1l0,0c0,0,0,0-0.1,0c0,0-0.1,0-0.1,0l-0.1,0.1
	c-0.1,0.2-0.3,0.3-0.5,0.5c-0.1,0.1-0.2,0.1-0.2,0.1c0,0,0-0.1,0-0.2c0.1-0.2,0.2-0.4,0.4-0.5c0.1-0.1,0.1-0.1,0.2-0.2
	c0.1,0,0.1-0.1,0.2-0.1c0.1,0,0.1,0,0.1,0.1c0,0,0,0,0,0c0,0,0,0,0.1,0c0,0,0-0.1,0-0.1c-0.1-0.1-0.2-0.1-0.3-0.1
	c-0.1,0-0.3,0.1-0.4,0.2c-0.1,0.1-0.1,0.1-0.2,0.2c0,0,0,0,0,0c0,0,0,0,0,0c-0.1,0.1-0.2,0.2-0.3,0.2c0,0-0.1,0-0.1,0
	c0,0,0-0.1,0-0.1c0.1-0.1,0.1-0.3,0.2-0.4c0,0-0.1-0.1-0.2-0.1c0,0-0.1,0-0.1,0c0,0-0.1,0.1-0.1,0.1c0,0-0.1,0.1-0.1,0.1
	c0,0-0.1,0.1-0.1,0.1c0,0.1-0.1,0.1-0.1,0.1l-0.1,0.1L4.7,11c0-0.1,0.1-0.2,0.2-0.5c0,0,0-0.1,0.1-0.1L5,10.3c0,0,0,0,0-0.1
	c-0.1,0-0.2,0-0.3,0.1l-0.2,0.5c0,0,0,0,0,0c0,0,0,0.1-0.1,0.1c-0.1,0.1-0.2,0.2-0.3,0.3c0,0-0.1,0-0.1,0c-0.1,0-0.1-0.2,0-0.4
	c0.1-0.2,0.2-0.3,0.3-0.6h0.3c0,0,0.1,0,0.1,0c0,0,0,0,0,0H4.3c0.1-0.2,0.2-0.3,0.3-0.5c-0.2,0-0.3,0.1-0.4,0.2
	c-0.1,0.1-0.1,0.2-0.2,0.2H4h0c0,0,0,0,0,0c0,0,0,0,0,0h0.1c-0.1,0.2-0.3,0.5-0.3,0.8c0,0.1,0,0.2,0,0.2c0,0,0.1,0.1,0.1,0.1
	c0.1,0,0.1,0,0.2-0.1c0.1,0,0.1-0.1,0.1-0.1c0,0,0.1-0.1,0.1-0.1L4.5,11l-0.1,0.2c0,0,0,0.1,0,0.1c0,0,0.1,0,0.1,0
	c0-0.1,0.1-0.2,0.2-0.3C4.8,11,4.9,10.8,5,10.6c0.1-0.1,0.2-0.2,0.4-0.3c-0.1,0.1-0.1,0.1-0.2,0.2c0,0.1-0.1,0.2-0.1,0.2
	c0,0.1,0.1,0.1,0.1,0.1c0.1,0,0.2,0,0.3-0.2c0,0,0,0,0,0.1c0,0.1-0.1,0.1-0.1,0.2c0,0.1,0,0.1-0.1,0.2c0,0.1,0,0.1,0,0.2
	c0,0,0.1,0.1,0.2,0.1c0.2,0,0.4-0.2,0.6-0.5c0,0,0,0.1-0.1,0.2c0,0.1,0,0.2,0,0.3c0,0.1,0.1,0.1,0.2,0c0.1,0,0.2-0.1,0.2-0.1
	c0,0,0.1-0.1,0.2-0.2L6.8,11c0,0,0,0.1,0,0.1c0,0.1,0,0.2,0,0.2c0,0,0.1,0.1,0.1,0.1c0.1,0,0.1,0,0.2-0.1c0.1,0,0.1-0.1,0.1-0.1
	c0,0,0.1-0.1,0.1-0.1L7.5,11c0,0,0,0.1,0,0.1c0,0.1,0,0.2,0,0.2c0,0,0.1,0.1,0.1,0.1c0.1,0,0.1,0,0.2-0.1c0.1,0,0.1-0.1,0.1-0.1
	c0,0,0.1-0.1,0.1-0.1L8.2,11c0,0.1,0,0.1,0,0.2c0,0.1,0.1,0.2,0.2,0.2c0.1,0,0.3-0.1,0.4-0.2C8.9,11.1,9,11,9.1,10.9
	c0-0.1,0.1-0.2,0.1-0.2c0.1,0,0.2,0,0.3,0c0.1,0,0.2-0.1,0.2-0.2l0.1-0.1l0-0.1c0,0,0.1,0,0.1,0.1c0.1,0.1,0.1,0.1,0,0.3
	c0,0,0,0.1-0.1,0.2c0,0.1-0.1,0.1-0.1,0.2c0,0,0,0.1-0.1,0.1c0,0.1,0,0.2,0,0.3c0.1,0.1,0.2,0.1,0.4-0.1c0.1-0.1,0.2-0.2,0.3-0.3
	c0,0,0,0.1,0,0.1c0,0.2,0,0.3,0.2,0.3c0.1,0,0.1,0,0.2-0.1c0.1,0,0.1-0.1,0.1-0.1c0,0,0.1-0.1,0.1-0.1l0.1-0.1c0,0,0,0.1,0,0.1
	c0,0.1,0,0.1,0,0.2c0,0,0.1,0.1,0.2,0.1c0.2,0,0.4-0.2,0.6-0.5c0,0,0,0.1-0.1,0.2c0,0.1,0,0.2,0,0.3c0,0.1,0.1,0.1,0.2,0
	c0.1,0,0.2-0.1,0.2-0.1c0,0,0.1-0.1,0.2-0.2L12.2,10.9C12.2,10.9,12.3,10.9,12.2,10.9L12.2,10.9z M7.5,10.9L7.5,10.9
	c0,0,0,0.1-0.1,0.1c-0.1,0.1-0.2,0.2-0.3,0.3c0,0-0.1,0-0.1,0c-0.1,0-0.1-0.2,0-0.4c0.1-0.2,0.2-0.3,0.3-0.6h0.5
	C7.7,10.5,7.6,10.7,7.5,10.9C7.5,10.9,7.5,10.9,7.5,10.9L7.5,10.9z M8.9,10.9L8.9,10.9c-0.1,0.1-0.1,0.2-0.2,0.3
	c-0.1,0.1-0.2,0.1-0.3,0.1c-0.1,0-0.1-0.1-0.1-0.2c0-0.2,0.2-0.5,0.3-0.7c0.1-0.1,0.1-0.1,0.2-0.1c0,0.1,0.1,0.1,0.1,0.2
	C9,10.7,9,10.8,8.9,10.9L8.9,10.9z"/>
</svg>
