<svg id="Слой_1" data-name="Слой 1" xmlns="http://www.w3.org/2000/svg" viewBox="0 0 180 79.35"><defs><style>.cls-1{fill:#7a2716;}</style></defs><title>IL_FORNO_logo1</title><path class="cls-1" d="M44.73,70.91a2.11,2.11,0,0,0,1.43-.59A2.72,2.72,0,0,0,47,68.89a1.61,1.61,0,0,0-.36-1.4,1.67,1.67,0,0,0-1.33-.55,2.25,2.25,0,0,0-1.46.55,1.9,1.9,0,0,0-.75,1.4,1.79,1.79,0,0,0,.32,1.43,1.57,1.57,0,0,0,1.31.59Z" transform="translate(-9.75 -59.9)"/><path class="cls-1" d="M56.44,71.1a68.35,68.35,0,0,1,8-11.19q-4.81-.27-10.94,9.76a115.92,115.92,0,0,0-5.79,11.26,66.13,66.13,0,0,0-3.24,8.18l-.21.21q-4.56,5.28-6.9,5.28c-1.13,0-1.69-.72-1.69-2.15a9,9,0,0,1,.16-1.66,12.3,12.3,0,0,1,.52-1.89L37,87.08a19.11,19.11,0,0,1,.91-2c.42-.8.74-1.43,1-1.89s.62-1.1,1.14-2,.87-1.42,1-1.72.53-.87,1.07-1.69l1-1.44a3,3,0,0,0,.32-.71c.09-.65-.52-.81-1.82-.46-1.56.44-2.54,1-2.93,1.69,0,.09-.26.44-.65,1s-.75,1.18-1.07,1.7-.73,1.24-1.21,2.18-.91,1.81-1.3,2.63a29.64,29.64,0,0,0-1.14,2.83,20.21,20.21,0,0,0-.81,3c-.74,4.12.33,6.23,3.19,6.31a7,7,0,0,0,3.38-1,11.64,11.64,0,0,0,2.7-2c.58-.6,1.31-1.39,2.19-2.38-.39,2.36-.12,4,.81,4.78a3.34,3.34,0,0,0,3.61.52,11.65,11.65,0,0,0,3.91-2.4A37.48,37.48,0,0,0,55.34,91c.43-.44,1-1.1,1.72-2s1.09-1.38,1.14-1.46a1,1,0,0,0,.19-.91c-.17-.39-.39-.42-.65-.07-1.52,1.82-3,3.41-4.29,4.75q-3.06,3.25-5,3.26c-.82,0-1.31-.53-1.46-1.6a10.88,10.88,0,0,1,.81-4.65q2.2-6.25,8.59-17.25Z" transform="translate(-9.75 -59.9)"/><path class="cls-1" d="M84.81,67.59a8.07,8.07,0,0,1,2.57-1.92,9.6,9.6,0,0,1,2.25-.78,27.54,27.54,0,0,1,2.83-.3q6-.51,8.4.13a3.1,3.1,0,0,0-.65-2.18c-.44-.45-1.39-.68-2.87-.68a105.48,105.48,0,0,0-13.08.65c-2.73.35-4.1.87-4.1,1.56s1.35,1,4,1a53.27,53.27,0,0,0-5,5.92,88.38,88.38,0,0,0-7.29,11.46q-3.75,6.82-3.74,11.12c0,2.57,1.1,3.84,3.31,3.84a37.22,37.22,0,0,1,1.63-8.52A35.27,35.27,0,0,1,75.8,82c.61-.13,2.68-.29,6.22-.46s5.82-.26,6.86-.26c.3-.74,0-1.26-.91-1.56a10.84,10.84,0,0,0-3.81-.36c-1.62.06-3.06.16-4.29.29s-2.36.28-3.35.46a84.45,84.45,0,0,1,5.59-9.05,30.35,30.35,0,0,1,2.7-3.51Z" transform="translate(-9.75 -59.9)"/><path class="cls-1" d="M166.93,78.52a4.45,4.45,0,0,0-4.65-3.64q-3.33-.07-7,3.05a21.66,21.66,0,0,0-5.66,7.62,14.83,14.83,0,0,0-.87,2.12c-.89,1-1.38,1.59-1.47,1.72q-4.76,5.34-7.1,5.34c-1,0-.84-1.18.33-3.52a49.48,49.48,0,0,1,3.38-5.86,9.81,9.81,0,0,0,.78-1.13l.85-1.31c.13-.19.37-.57.71-1.13a14.2,14.2,0,0,0,.72-1.27c.13-.29.3-.64.52-1.08a4.17,4.17,0,0,0,.42-1.17,4.94,4.94,0,0,0,.1-1,2.16,2.16,0,0,0-.78-1.75,2.73,2.73,0,0,0-1.82-.65,4.86,4.86,0,0,0-2.15.58,11.78,11.78,0,0,0-2.47,1.73c-.87.76-1.69,1.5-2.44,2.24s-1.61,1.65-2.54,2.74-1.64,1.93-2.12,2.53l-1.82,2.35c-.74,1-1.13,1.45-1.17,1.49q1.11-2.6,4.36-8.65c.35-.61.73-1.28,1.14-2s.76-1.34,1-1.82.47-.8.55-1A4,4,0,0,0,135,75a4,4,0,0,0-2.63,2.11q-1.35,2.76-4.06,9.26a.76.76,0,0,0-.18.18,23.88,23.88,0,0,1-2.41,2.8,21,21,0,0,1-5.53,4.82c-1.13.56-1.88.7-2.24.42s-.36-.92,0-1.92a38.34,38.34,0,0,1,4.68-7.55,11.33,11.33,0,0,0,2-4.1,3.15,3.15,0,0,0-.52-2.93,7.28,7.28,0,0,0-2.87-1.56,9.89,9.89,0,0,1-2.86-1.37q0-4.76-2.21-4.75c-1.57,0-2,.7-1.37,2.08a7.42,7.42,0,0,0,2.08,2.74c-.22.34-.52.85-.91,1.53s-.61,1-.65,1.13a6.18,6.18,0,0,1-3.78,2.8A5.69,5.69,0,0,1,107,80a5.86,5.86,0,0,0-1.36-3.68,4.65,4.65,0,0,0-3.52-1.46q-3.31-.07-7,3.05a21.54,21.54,0,0,0-5.66,7.62,11.52,11.52,0,0,0-1.24,7.84,4.29,4.29,0,0,0,4.49,3.68c2.34,0,4.82-1.13,7.42-3.52a22.4,22.4,0,0,0,5.53-7.22A12.52,12.52,0,0,0,107,81.64a7.32,7.32,0,0,0,5,.3,7.62,7.62,0,0,0,4.07-2.9c.22-.35.54-.87,1-1.56s.71-1.15.84-1.37a18.94,18.94,0,0,0,1.7,1.17c1.51,1,1.58,2.74.19,5.08L118,85.26c-.93,1.49-1.68,2.73-2.25,3.71a11.86,11.86,0,0,0-1.1,2.31c-.83,2.12-.7,3.73.39,4.81q2.4,2.41,7.68-1.88A51.23,51.23,0,0,0,127,89.47c-1.34,3.08-2.52,5.59-3.56,7.53a4.2,4.2,0,0,1,1.89-.32c1.26-.09,2-.37,2.34-.85q2.28-4,2.67-4.62a93.39,93.39,0,0,1,6.05-7.68q1.37-1.56,4.3-4.42t3.64-2.87c.3,0,.46.13.46.39q0,1.44-2.12,4.56t-4.2,6.57a11.91,11.91,0,0,0-2.08,5.67q0,3.38,2.73,3.38,2.42,0,5.21-2.6c.7-.65,1.69-1.72,3-3.19l.95-1.12a9.68,9.68,0,0,0,.15,3.49,4.29,4.29,0,0,0,4.49,3.68q3.53.06,7.42-3.52a22.44,22.44,0,0,0,5.54-7.22,11.25,11.25,0,0,0,1.07-7.81ZM103,87.37h0a24.31,24.31,0,0,1-4.39,6q-2.9,3-5.37,2.28c-1.13-.39-1.61-1.55-1.43-3.48a19.49,19.49,0,0,1,2.28-6.87,19.68,19.68,0,0,1,3.93-5.76,8.21,8.21,0,0,1,4.4-2.64,11.18,11.18,0,0,0,2.73,3.65A20.11,20.11,0,0,1,103,87.37Zm62.26-6.93h0a18.53,18.53,0,0,1-2.11,6.93,24.63,24.63,0,0,1-4.4,6q-2.89,3-5.36,2.28-1.69-.58-1.44-3.48a19.91,19.91,0,0,1,2.28-6.87,21,21,0,0,1,4.62-6.41q2.73-2.5,4.82-1.92,1.75.53,1.59,3.48Z" transform="translate(-9.75 -59.9)"/><path class="cls-1" d="M189.46,113.59c.47.11.32.68-.16.63-22.45-2.66-54.27-4.31-89.55-4.31s-67.11,1.65-89.55,4.31c-.49,0-.64-.52-.17-.63,17.52-4.08,51.13-6.84,89.72-6.84s72.2,2.76,89.71,6.84Z" transform="translate(-9.75 -59.9)"/><path class="cls-1" d="M131.87,123.8a1.26,1.26,0,0,0,.85-.35,1.59,1.59,0,0,0,.5-.84,1,1,0,0,0-.21-.83,1,1,0,0,0-.79-.33,1.35,1.35,0,0,0-.87.33,1.18,1.18,0,0,0-.44.83,1,1,0,0,0,.19.84.93.93,0,0,0,.77.35Z" transform="translate(-9.75 -59.9)"/><path class="cls-1" d="M147.48,133.1c-.1-.23-.23-.24-.38,0s-.68.82-1.43,1.62a12.48,12.48,0,0,1-3.3,2.88l-.62.27c-.77.18-.78-.57,0-2.23.26-.56.58-1.22,1-2s.72-1.36,1-1.85a6.1,6.1,0,0,0,.43-.77,2,2,0,0,1,.07-.19c0-.28-.23-.45-.77-.5a1.53,1.53,0,0,0-1.46.42l-.69,1a41.61,41.61,0,0,1-5.07,5.42c-1,.85-1.74,1.16-2.21.93s-.42-1,.17-2.43a19.51,19.51,0,0,1,4-5.88,15.8,15.8,0,0,1,2.46-2.17,4,4,0,0,1,2.23-.79,1.62,1.62,0,0,1,1.54,1.27.68.68,0,0,0,.23.39c.25.2.47.15.65-.16s.09-.84-.5-1.31a4.5,4.5,0,0,0-2.92-1.07,7.37,7.37,0,0,0-4.48,1.94,18.17,18.17,0,0,0-4,4.59q-.23.36-.42.75c-.15.19-.36.43-.62.71l-.66.7q-2.68,3.1-4.07,3.11c-.67,0-1-.42-1-1.27a4.94,4.94,0,0,1,.1-1,6.86,6.86,0,0,1,.3-1.11q.21-.6.39-1.08a8.59,8.59,0,0,1,.54-1.19l.57-1.12c.14-.27.37-.65.68-1.15s.51-.84.61-1,.31-.51.63-1l.56-.84a1.61,1.61,0,0,0,.19-.43c.06-.38-.3-.47-1.07-.27a2.79,2.79,0,0,0-1.73,1c0,.06-.16.26-.39.62l-.63,1c-.19.31-.43.74-.71,1.29s-.54,1.07-.77,1.55-.33.74-.49,1.16c-.08-.07-.17,0-.28.11a14.63,14.63,0,0,1-1.42,1.65,12.47,12.47,0,0,1-3.27,2.85c-.67.33-1.11.42-1.32.25s-.22-.55,0-1.13a23.18,23.18,0,0,1,2.77-4.46,6.67,6.67,0,0,0,1.16-2.43,1.86,1.86,0,0,0-.31-1.73,4.47,4.47,0,0,0-1.69-.92,5.49,5.49,0,0,1-1.7-.81c0-1.87-.43-2.8-1.3-2.8s-1.19.41-.81,1.23a4.46,4.46,0,0,0,1.23,1.61c-.13.21-.31.51-.54.91s-.36.62-.38.67a3.68,3.68,0,0,1-2.23,1.65,3.37,3.37,0,0,1-2.65-.42,3.49,3.49,0,0,0-.81-2.17,2.77,2.77,0,0,0-2.08-.87,6.3,6.3,0,0,0-4.11,1.81,12.56,12.56,0,0,0-3.34,4.5,8.24,8.24,0,0,0-.51,1.21l-.88,1a13,13,0,0,1-3.3,2.88,1.67,1.67,0,0,1-1.62.19q-1.38-.76.5-4.69c.82-1.71,1.9-3.78,3.23-6.19h3.88a1,1,0,0,0,.85-.42c0-.13-.17-.19-.42-.19H100a23.5,23.5,0,0,1,3.5-5.19,5.29,5.29,0,0,0-4.15,2.46c-.43.59-1,1.5-1.73,2.73H92.17a23.16,23.16,0,0,1,3.49-5.19,5.29,5.29,0,0,0-4.15,2.46c-.43.59-1,1.5-1.73,2.73H88.4l-.27,0c-.39,0-.57.18-.54.38s.17.19.42.19h1.46a58.33,58.33,0,0,0-2.94,6.22c-.22.29-.68.82-1.4,1.59a12.34,12.34,0,0,1-3.31,2.88l-.61.27c-.77.18-.78-.57,0-2.23.26-.56.58-1.22,1-2s.72-1.36,1-1.85a6.73,6.73,0,0,0,.42-.77l.08-.19c0-.28-.23-.45-.77-.5a1.52,1.52,0,0,0-1.46.42l-.69,1a41.61,41.61,0,0,1-5.07,5.42c-1,.85-1.74,1.16-2.21.93s-.42-1,.17-2.43a19.51,19.51,0,0,1,4-5.88,15.8,15.8,0,0,1,2.46-2.17,4,4,0,0,1,2.23-.79,1.61,1.61,0,0,1,1.53,1.27.74.74,0,0,0,.23.39c.26.2.48.15.66-.16s.09-.84-.5-1.31A4.52,4.52,0,0,0,81.29,126a7.35,7.35,0,0,0-4.48,1.94,18.39,18.39,0,0,0-2.41,2.34,1.48,1.48,0,0,0,0-.21c0-.28-.17-.24-.5.12-1.21,1.43-2.18,2.22-2.93,2.34a.71.71,0,0,1-.78-.28,1.38,1.38,0,0,1,.09-1.14A23.4,23.4,0,0,1,73,126.68a2,2,0,0,0-1.73-.65,3.12,3.12,0,0,0-1.34.34,6.55,6.55,0,0,0-1.52,1c-.53.46-1,.92-1.48,1.37s-1,1-1.52,1.63-1,1.15-1.27,1.52L63,133.33l-.69.88q.64-1.53,2.57-5.11c.21-.36.43-.75.67-1.19l.62-1.08c.17-.28.27-.47.33-.57a2.71,2.71,0,0,0-3.23,1.23l-2.38,5.44a.35.35,0,0,0-.16.13q-.07.12-1.38,1.62a13,13,0,0,1-3.31,2.88,1.65,1.65,0,0,1-1.61.19q-1.4-.76.5-4.69c.82-1.71,1.89-3.78,3.22-6.19h3.89a1,1,0,0,0,.84-.42c0-.13-.16-.19-.42-.19H58.57a23.16,23.16,0,0,1,3.5-5.19,5.26,5.26,0,0,0-4.15,2.46,29.66,29.66,0,0,0-1.73,2.73H54.8l-.27,0c-.38,0-.56.18-.54.38s.17.19.43.19h1.46a36.8,36.8,0,0,0-3.73,8.77,3.48,3.48,0,0,0,.17,2.63,1.89,1.89,0,0,0,1.67.83,4.61,4.61,0,0,0,2.16-.58,7.11,7.11,0,0,0,1.67-1.17c.4-.4.9-1,1.52-1.67l.77-.93-1,2.39a1.47,1.47,0,0,0,0,1.42c.23.41.69.56,1.38.46a19.7,19.7,0,0,1,1.81-3.19,42.57,42.57,0,0,1,4.25-5.38,17.62,17.62,0,0,1,4.28-3.65,8.65,8.65,0,0,0-1.86,2.46A5.06,5.06,0,0,0,68.2,132a1.49,1.49,0,0,0,1.44,1.48c1,.11,2.2-.47,3.61-1.75-.17.25-.34.5-.5.75a11,11,0,0,0-.88,1.79,13,13,0,0,0-.62,2.13,2.44,2.44,0,0,0,.31,1.93,2.15,2.15,0,0,0,1.88.77c1.87,0,4-1.73,6.23-5.27a10.42,10.42,0,0,0-.57,1.73,3.68,3.68,0,0,0,.05,2.9,1.46,1.46,0,0,0,1.77.54,6,6,0,0,0,2.4-1.48c.41-.39,1-1,1.77-1.88l.92-1.09a10.67,10.67,0,0,0-.26,1,3.48,3.48,0,0,0,.17,2.63,1.89,1.89,0,0,0,1.67.83,4.54,4.54,0,0,0,2.15-.58,7,7,0,0,0,1.68-1.17c.39-.4.9-1,1.51-1.67l1-1.18c-.12.41-.22.79-.29,1.14a3.48,3.48,0,0,0,.17,2.63,1.89,1.89,0,0,0,1.67.83,4.54,4.54,0,0,0,2.15-.58,7,7,0,0,0,1.68-1.17c.39-.4.9-1,1.51-1.67l.61-.73a5.82,5.82,0,0,0,.09,2.13,2.53,2.53,0,0,0,2.65,2.17,6.51,6.51,0,0,0,4.38-2.08,13.2,13.2,0,0,0,3.27-4.26,7.57,7.57,0,0,0,.73-2.77,4.33,4.33,0,0,0,3,.17,4.48,4.48,0,0,0,2.4-1.71l.58-.92.5-.81a8.79,8.79,0,0,0,1,.69c.89.62.93,1.62.11,3-.15.26-.51.83-1.06,1.71s-1,1.62-1.32,2.19a7.63,7.63,0,0,0-.66,1.37c-.48,1.26-.41,2.2.23,2.84q1.42,1.43,4.54-1.11a37.75,37.75,0,0,0,3.09-3.47,9.26,9.26,0,0,0-.28,1.16q-.66,3.66,1.88,3.73a4.06,4.06,0,0,0,2-.58,6.54,6.54,0,0,0,1.59-1.15c.38-.38.86-.91,1.45-1.57l.61-.73a13,13,0,0,0-.38,1.49,2.4,2.4,0,0,0,.3,1.93,2.16,2.16,0,0,0,1.89.77c1.87,0,3.94-1.73,6.22-5.27a10.42,10.42,0,0,0-.57,1.73,3.63,3.63,0,0,0,.06,2.9,1.45,1.45,0,0,0,1.76.54,5.93,5.93,0,0,0,2.41-1.48c.41-.39,1-1,1.76-1.88l1.73-2a.61.61,0,0,0,.12-.54Zm-53.12,0h0c-.06.08-.52.62-1.39,1.62a13,13,0,0,1-3.3,2.88,1.67,1.67,0,0,1-1.62.19q-1.38-.76.5-4.69c.82-1.71,1.9-3.78,3.23-6.19h5.57A58.51,58.51,0,0,0,94.46,133a.55.55,0,0,0-.1.11Zm15.87.46h0a14.49,14.49,0,0,1-2.59,3.54c-1.14,1.18-2.2,1.63-3.17,1.34-.67-.23-1-.91-.85-2.05a14.94,14.94,0,0,1,3.67-7.46,4.89,4.89,0,0,1,2.6-1.56,6.64,6.64,0,0,0,1.61,2.16,11.9,11.9,0,0,1-1.27,4Z" transform="translate(-9.75 -59.9)"/></svg>