<?xml version="1.0" encoding="utf-8"?>
<!-- Generator: Adobe Illustrator 24.0.1, SVG Export Plug-In . SVG Version: 6.00 Build 0)  -->
<svg version="1.1" id="Layer_1" xmlns="http://www.w3.org/2000/svg" xmlns:xlink="http://www.w3.org/1999/xlink" x="0px" y="0px"
	 viewBox="0 0 87.5 100" style="enable-background:new 0 0 87.5 100;" xml:space="preserve">
<style type="text/css">
	.st0{fill:#7A2716;}
</style>
<title>Artboard 46</title>
<path class="st0" d="M18.4,39.1c0.2,0,0.5-0.1,0.6-0.3c0.2-0.2,0.3-0.4,0.4-0.6c0-0.2,0-0.5-0.2-0.6c-0.2-0.2-0.4-0.3-0.6-0.2
	c-0.2,0-0.5,0.1-0.7,0.2c-0.2,0.2-0.3,0.4-0.3,0.6c0,0.2,0,0.5,0.1,0.6C18,39,18.2,39.1,18.4,39.1z"/>
<path class="st0" d="M23.7,39.2c1-1.8,2.2-3.5,3.6-5.1c-1.5-0.1-3.1,1.4-5,4.4c-1,1.7-1.8,3.4-2.6,5.1c-0.6,1.2-1.1,2.4-1.5,3.7
	l-0.1,0.1c-1.4,1.6-2.4,2.4-3.1,2.4c-0.5,0-0.8-0.3-0.8-1c0-0.3,0-0.5,0.1-0.8c0.1-0.3,0.1-0.6,0.2-0.9l0.3-0.8
	c0.1-0.3,0.3-0.6,0.4-0.9c0.2-0.4,0.3-0.6,0.5-0.9c0.1-0.2,0.3-0.5,0.5-0.9s0.4-0.6,0.5-0.8c0.1-0.1,0.2-0.4,0.5-0.8l0.5-0.7
	c0.1-0.1,0.1-0.2,0.1-0.3c0-0.3-0.2-0.4-0.8-0.2c-0.7,0.2-1.2,0.5-1.3,0.8c0,0-0.1,0.2-0.3,0.5c-0.2,0.3-0.3,0.5-0.5,0.8
	c-0.1,0.2-0.3,0.6-0.5,1c-0.2,0.4-0.4,0.8-0.6,1.2c-0.2,0.4-0.4,0.8-0.5,1.3c-0.2,0.4-0.3,0.9-0.4,1.4c-0.3,1.9,0.1,2.8,1.4,2.9
	c0.5,0,1.1-0.2,1.5-0.5c0.4-0.2,0.9-0.5,1.2-0.9c0.3-0.3,0.6-0.6,1-1.1c-0.2,1.1-0.1,1.8,0.4,2.2c0.5,0.4,1.1,0.5,1.6,0.2
	c0.7-0.2,1.3-0.6,1.8-1.1c0.5-0.4,0.9-0.9,1.4-1.4c0.2-0.2,0.5-0.5,0.8-0.9s0.5-0.6,0.5-0.7c0.1-0.1,0.1-0.3,0.1-0.4
	c-0.1-0.2-0.2-0.2-0.3,0c-0.7,0.8-1.4,1.5-1.9,2.2c-0.9,1-1.7,1.5-2.3,1.5c-0.4,0-0.6-0.2-0.7-0.7c0-0.7,0.1-1.4,0.4-2.1
	C20.5,45.1,21.8,42.5,23.7,39.2L23.7,39.2z"/>
<path class="st0" d="M36.6,37.6c0.3-0.4,0.7-0.7,1.2-0.9c0.3-0.2,0.7-0.3,1-0.4c0.4-0.1,0.9-0.1,1.3-0.1c1.8-0.2,3.1-0.1,3.8,0.1
	c0-0.4-0.1-0.7-0.3-1c-0.2-0.2-0.6-0.3-1.3-0.3c-2,0-4,0.1-5.9,0.3c-1.2,0.2-1.9,0.4-1.9,0.7c0,0.3,0.6,0.5,1.8,0.5
	c-0.8,0.8-1.6,1.7-2.3,2.7c-1.2,1.6-2.3,3.4-3.3,5.2c-1.1,2.1-1.7,3.7-1.7,5c0,1.2,0.5,1.7,1.5,1.7c0.1-1.3,0.3-2.6,0.7-3.9
	c0.3-1.1,0.7-2.1,1.2-3.1c0.3-0.1,1.2-0.1,2.8-0.2c1.6-0.1,2.6-0.1,3.1-0.1c0.1-0.3,0-0.6-0.4-0.7c-0.6-0.2-1.1-0.2-1.7-0.2
	c-0.7,0-1.4,0.1-1.9,0.1c-0.6,0.1-1.1,0.1-1.5,0.2c0.8-1.4,1.6-2.8,2.5-4.1C35.7,38.6,36.1,38.1,36.6,37.6L36.6,37.6z"/>
<path class="st0" d="M73.7,42.5c-0.2-1-1.1-1.7-2.1-1.6c-1,0-2.1,0.4-3.2,1.4c-1.1,0.9-2,2.1-2.6,3.5c-0.2,0.3-0.3,0.6-0.4,1
	c-0.4,0.5-0.6,0.7-0.7,0.8c-1.4,1.6-2.5,2.4-3.2,2.4c-0.5,0-0.4-0.5,0.1-1.6c0.4-0.9,1-1.8,1.5-2.7c0.1-0.2,0.2-0.3,0.4-0.5l0.4-0.6
	c0.1-0.1,0.2-0.3,0.3-0.5c0.1-0.2,0.2-0.4,0.3-0.6c0.1-0.1,0.1-0.3,0.2-0.5c0.1-0.2,0.2-0.3,0.2-0.5c0-0.1,0-0.3,0-0.5
	c0-0.3-0.1-0.6-0.4-0.8c-0.2-0.2-0.5-0.3-0.8-0.3c-0.3,0-0.7,0.1-1,0.3c-0.4,0.2-0.8,0.5-1.1,0.8c-0.4,0.3-0.8,0.7-1.1,1
	c-0.3,0.3-0.7,0.7-1.2,1.2c-0.4,0.5-0.7,0.9-1,1.1l-0.8,1.1c-0.3,0.5-0.5,0.7-0.5,0.7c0.3-0.8,1-2.1,2-3.9c0.2-0.3,0.3-0.6,0.5-0.9
	s0.3-0.6,0.5-0.8c0.1-0.2,0.2-0.4,0.2-0.5c-0.4-0.2-0.8-0.2-1.2,0c-0.5,0.1-1,0.5-1.2,1c-0.4,0.8-1,2.2-1.8,4.2c0,0-0.1,0-0.1,0.1
	c-0.3,0.5-0.7,0.9-1.1,1.3c-0.7,0.9-1.5,1.6-2.5,2.2c-0.5,0.3-0.9,0.3-1,0.2c-0.2-0.1-0.2-0.4,0-0.9c0.6-1.2,1.3-2.4,2.1-3.4
	c0.4-0.6,0.7-1.2,0.9-1.9c0.1-0.5,0.1-1-0.2-1.3c-0.4-0.3-0.8-0.6-1.3-0.7c-0.5-0.1-0.9-0.3-1.3-0.6c0-1.4-0.3-2.2-1-2.2
	c-0.7,0-0.9,0.3-0.6,0.9c0.2,0.5,0.5,0.9,0.9,1.2c-0.1,0.2-0.2,0.4-0.4,0.7c-0.2,0.3-0.3,0.5-0.3,0.5c-0.4,0.6-1,1.1-1.7,1.3
	c-0.7,0.2-1.4,0.1-2.1-0.3c0-0.6-0.2-1.2-0.6-1.7c-0.4-0.4-1-0.7-1.6-0.7c-1,0-2.1,0.4-3.2,1.4c-1.1,0.9-2,2.1-2.6,3.5
	c-0.6,1.1-0.8,2.3-0.6,3.5c0.1,1,1,1.7,2,1.7c1.1,0,2.2-0.5,3.4-1.6c1-0.9,1.9-2,2.5-3.3c0.3-0.7,0.5-1.4,0.6-2.1
	c0.7,0.3,1.5,0.4,2.3,0.1c0.7-0.2,1.4-0.7,1.8-1.3c0.1-0.2,0.2-0.4,0.5-0.7c0.2-0.3,0.3-0.5,0.4-0.6c0.2,0.2,0.5,0.4,0.8,0.5
	c0.7,0.5,0.7,1.2,0.1,2.3l-0.8,1.3c-0.4,0.7-0.8,1.2-1,1.7c-0.2,0.3-0.4,0.7-0.5,1c-0.4,1-0.3,1.7,0.2,2.2c0.7,0.7,1.9,0.4,3.5-0.9
	c0.7-0.7,1.3-1.4,1.9-2.1c-0.6,1.4-1.1,2.5-1.6,3.4c0.3-0.1,0.6-0.2,0.9-0.1c0.6,0,0.9-0.2,1.1-0.4c0.7-1.2,1.1-1.9,1.2-2.1
	c0.9-1.2,1.8-2.4,2.7-3.5c0.4-0.5,1.1-1.1,1.9-2c0.9-0.9,1.4-1.3,1.6-1.3c0.1,0,0.2,0.1,0.2,0.2c0,0.4-0.3,1.1-1,2.1s-1.3,1.9-1.9,3
	c-0.5,0.8-0.9,1.6-0.9,2.6c0,1,0.4,1.5,1.2,1.5c0.7,0,1.5-0.4,2.4-1.2c0.3-0.3,0.8-0.8,1.4-1.4l0.4-0.5c-0.1,0.5-0.1,1.1,0.1,1.6
	c0.1,1,1,1.7,2,1.7c1.1,0,2.2-0.5,3.4-1.6c1.1-0.9,1.9-2,2.5-3.3C73.8,45,74,43.7,73.7,42.5L73.7,42.5z M44.8,46.6L44.8,46.6
	c-0.5,1-1.2,1.9-2,2.7c-0.9,0.9-1.7,1.2-2.4,1c-0.5-0.2-0.7-0.7-0.6-1.6c0.1-1.1,0.5-2.1,1-3.1c0.4-1,1-1.9,1.8-2.6
	c0.5-0.6,1.2-1,2-1.2c0.3,0.6,0.7,1.2,1.2,1.7C45.6,44.5,45.3,45.6,44.8,46.6z M73,43.4L73,43.4c-0.1,1.1-0.4,2.2-1,3.1
	c-0.5,1-1.2,1.9-2,2.7c-0.9,0.9-1.7,1.2-2.4,1c-0.5-0.2-0.7-0.7-0.7-1.6c0.2-1.1,0.5-2.1,1-3.1c0.5-1.1,1.2-2.1,2.1-2.9
	c0.8-0.8,1.6-1,2.2-0.9C72.8,42,73,42.5,73,43.4L73,43.4z"/>
<path class="st0" d="M83.9,58.4c0.2,0,0.1,0.3-0.1,0.3c-10.2-1.2-24.6-2-40.5-2s-30.4,0.7-40.5,2c-0.2,0-0.3-0.2-0.1-0.3
	c7.9-1.8,23.1-3.1,40.6-3.1S76,56.6,83.9,58.4L83.9,58.4z"/>
<path class="st0" d="M57.9,63c0.1,0,0.3-0.1,0.4-0.2c0.1-0.1,0.2-0.2,0.2-0.4c0-0.1,0-0.3-0.1-0.4C58.3,62,58.2,62,58,62
	c-0.1,0-0.3,0.1-0.4,0.1c-0.1,0.1-0.2,0.2-0.2,0.4c0,0.1,0,0.3,0.1,0.4C57.6,63,57.7,63.1,57.9,63L57.9,63z"/>
<path class="st0" d="M64.9,67.3c0-0.1-0.1-0.1-0.2,0c-0.1,0.1-0.3,0.4-0.6,0.7c-0.4,0.5-0.9,1-1.5,1.3l-0.3,0.1
	c-0.3,0.1-0.4-0.3,0-1c0.1-0.3,0.3-0.6,0.5-0.9c0.2-0.4,0.3-0.6,0.5-0.8c0.1-0.1,0.1-0.2,0.2-0.3c0,0,0-0.1,0-0.1
	c0-0.1-0.1-0.2-0.3-0.2c-0.2-0.1-0.5,0-0.7,0.2l-0.3,0.5c-0.7,0.9-1.5,1.7-2.3,2.5c-0.5,0.4-0.8,0.5-1,0.4c-0.2-0.1-0.2-0.5,0.1-1.1
	c0.4-1,1-1.9,1.8-2.7c0.3-0.4,0.7-0.7,1.1-1c0.3-0.2,0.6-0.3,1-0.4c0.3,0,0.6,0.2,0.7,0.6c0,0.1,0.1,0.1,0.1,0.2
	c0.1,0.1,0.2,0.1,0.3-0.1c0.1-0.1,0-0.4-0.2-0.6c-0.4-0.3-0.8-0.5-1.3-0.5c-0.8,0.1-1.5,0.4-2,0.9c-0.7,0.6-1.3,1.3-1.8,2.1
	c-0.1,0.1-0.1,0.2-0.2,0.3c-0.1,0.1-0.2,0.2-0.3,0.3L57.8,68c-0.8,0.9-1.4,1.4-1.8,1.4c-0.3,0-0.5-0.2-0.5-0.6c0-0.2,0-0.3,0-0.5
	c0-0.2,0.1-0.3,0.1-0.5c0.1-0.2,0.1-0.3,0.2-0.5c0.1-0.2,0.1-0.4,0.2-0.5l0.3-0.5c0.1-0.1,0.2-0.3,0.3-0.5c0.1-0.2,0.2-0.4,0.3-0.5
	c0-0.1,0.1-0.2,0.3-0.5l0.3-0.4c0-0.1,0.1-0.1,0.1-0.2c0-0.2-0.1-0.2-0.5-0.1c-0.3,0-0.6,0.2-0.8,0.5c0,0-0.1,0.1-0.2,0.3l-0.3,0.5
	c-0.1,0.1-0.2,0.3-0.3,0.6c-0.1,0.2-0.2,0.5-0.3,0.7S55,67,55,67.2c0,0-0.1,0-0.1,0c-0.2,0.3-0.4,0.5-0.6,0.7
	c-0.4,0.5-0.9,1-1.5,1.3c-0.3,0.1-0.5,0.2-0.6,0.1c-0.1-0.1-0.1-0.2,0-0.5c0.3-0.7,0.8-1.4,1.3-2c0.2-0.3,0.4-0.7,0.5-1.1
	c0.1-0.3,0-0.6-0.1-0.8c-0.2-0.2-0.5-0.3-0.8-0.4c-0.3-0.1-0.5-0.2-0.8-0.4c0-0.8-0.2-1.3-0.6-1.3c-0.4,0-0.5,0.2-0.4,0.6
	c0.1,0.3,0.3,0.5,0.6,0.7c-0.1,0.1-0.1,0.2-0.2,0.4c-0.1,0.2-0.2,0.3-0.2,0.3c-0.2,0.4-0.6,0.6-1,0.7c-0.4,0.1-0.8,0-1.2-0.2
	c0-0.4-0.1-0.7-0.4-1c-0.2-0.3-0.6-0.4-0.9-0.4c-0.7,0-1.4,0.3-1.9,0.8c-0.7,0.6-1.2,1.3-1.5,2c-0.1,0.2-0.2,0.4-0.2,0.5l-0.4,0.5
	c-0.4,0.5-0.9,1-1.5,1.3c-0.2,0.2-0.5,0.2-0.7,0.1c-0.4-0.2-0.3-0.9,0.2-2.1c0.4-0.8,0.9-1.7,1.5-2.8h1.8c0.2,0,0.3-0.1,0.4-0.2
	c0-0.1-0.1-0.1-0.2-0.1h-1.9c0.4-0.9,1-1.6,1.6-2.3c-0.8,0-1.5,0.5-1.9,1.1c-0.2,0.3-0.5,0.7-0.8,1.2h-2.5c0.4-0.9,0.9-1.6,1.6-2.3
	c-0.8,0-1.5,0.5-1.9,1.1c-0.2,0.3-0.5,0.7-0.8,1.2h-0.6h-0.1c-0.2,0-0.3,0.1-0.2,0.2c0,0.1,0.1,0.1,0.2,0.1h0.7
	c-0.5,0.9-0.9,1.9-1.3,2.8c-0.1,0.1-0.3,0.4-0.6,0.7c-0.4,0.5-0.9,1-1.5,1.3l-0.3,0.1c-0.3,0.1-0.4-0.3,0-1c0.1-0.3,0.3-0.6,0.5-0.9
	c0.2-0.4,0.3-0.6,0.5-0.8c0.1-0.1,0.1-0.2,0.2-0.3l0-0.1c0-0.1-0.1-0.2-0.3-0.2c-0.2-0.1-0.5,0-0.7,0.2l-0.3,0.5
	c-0.7,0.9-1.5,1.7-2.3,2.5c-0.5,0.4-0.8,0.5-1,0.4c-0.2-0.1-0.2-0.5,0.1-1.1c0.4-1,1-1.9,1.8-2.7c0.3-0.4,0.7-0.7,1.1-1
	c0.3-0.2,0.6-0.3,1-0.4c0.3,0,0.6,0.2,0.7,0.6c0,0.1,0.1,0.1,0.1,0.2c0.1,0.1,0.2,0.1,0.3-0.1s0-0.4-0.2-0.6
	C35.9,64.2,35.5,64,35,64c-0.8,0.1-1.5,0.4-2,0.9c-0.4,0.3-0.8,0.7-1.1,1.1c0,0,0-0.1,0-0.1c0-0.1-0.1-0.1-0.2,0.1
	c-0.5,0.6-1,1-1.3,1.1c-0.1,0-0.3,0-0.4-0.1c-0.1-0.2,0-0.4,0-0.5c0.3-0.7,0.7-1.4,1.2-2c-0.2-0.2-0.5-0.3-0.8-0.3
	c-0.2,0-0.4,0.1-0.6,0.2c-0.2,0.1-0.5,0.3-0.7,0.5c-0.2,0.2-0.5,0.4-0.7,0.6c-0.2,0.2-0.5,0.5-0.7,0.7c-0.2,0.3-0.5,0.5-0.6,0.7
	l-0.5,0.7l-0.3,0.4c0.2-0.5,0.6-1.2,1.2-2.3c0.1-0.2,0.2-0.3,0.3-0.5l0.3-0.5c0.1-0.1,0.1-0.2,0.1-0.3c-0.6-0.2-1.2,0-1.5,0.6
	l-1.1,2.5c0,0-0.1,0-0.1,0.1c0,0-0.2,0.3-0.6,0.7c-0.4,0.5-0.9,1-1.5,1.3c-0.2,0.2-0.5,0.2-0.7,0.1c-0.4-0.2-0.3-0.9,0.2-2.1
	c0.4-0.8,0.9-1.7,1.5-2.8h1.8c0.2,0,0.3-0.1,0.4-0.2c0-0.1-0.1-0.1-0.2-0.1h-1.8c0.4-0.9,1-1.6,1.6-2.3c-0.8,0-1.5,0.5-1.9,1.1
	c-0.3,0.4-0.5,0.8-0.8,1.2H23h-0.1c-0.2,0-0.3,0.1-0.2,0.2c0,0.1,0.1,0.1,0.2,0.1h0.7c-0.7,1.2-1.3,2.6-1.7,4
	c-0.1,0.4-0.1,0.8,0.1,1.2c0.2,0.2,0.5,0.4,0.8,0.4c0.3,0,0.7-0.1,1-0.3c0.3-0.1,0.5-0.3,0.8-0.5c0.2-0.2,0.4-0.5,0.7-0.8l0.3-0.4
	l-0.5,1.1c-0.1,0.2-0.1,0.4,0,0.6c0.1,0.2,0.3,0.3,0.6,0.2c0.2-0.5,0.5-1,0.8-1.4c0.6-0.9,1.2-1.7,1.9-2.4c0.6-0.7,1.2-1.2,1.9-1.7
	c-0.3,0.3-0.6,0.7-0.8,1.1c-0.2,0.4-0.4,0.8-0.3,1.3c0,0.4,0.3,0.7,0.7,0.7c0.5,0,1-0.2,1.6-0.8c-0.1,0.1-0.2,0.2-0.2,0.3
	c-0.2,0.3-0.3,0.5-0.4,0.8c-0.1,0.3-0.2,0.6-0.3,1c-0.1,0.3,0,0.6,0.1,0.9c0.2,0.3,0.5,0.4,0.9,0.3c0.8,0,1.8-0.8,2.8-2.4
	c-0.1,0.3-0.2,0.5-0.3,0.8c-0.2,0.4-0.2,0.9,0,1.3c0.2,0.3,0.5,0.4,0.8,0.2c0.4-0.1,0.8-0.4,1.1-0.7c0.2-0.2,0.5-0.5,0.8-0.9
	l0.4-0.5c0,0.1-0.1,0.3-0.1,0.5c-0.1,0.4-0.1,0.8,0.1,1.2c0.2,0.2,0.5,0.4,0.8,0.4c0.3,0,0.7-0.1,1-0.3c0.3-0.1,0.5-0.3,0.8-0.5
	c0.2-0.2,0.4-0.5,0.7-0.8l0.5-0.5c-0.1,0.2-0.1,0.4-0.1,0.5c-0.1,0.4-0.1,0.8,0.1,1.2c0.2,0.2,0.5,0.4,0.8,0.4c0.3,0,0.7-0.1,1-0.3
	c0.3-0.1,0.5-0.3,0.8-0.5c0.2-0.2,0.4-0.5,0.7-0.8l0.3-0.3c0,0.3,0,0.6,0,1c0.1,0.6,0.6,1,1.2,1c0.8,0,1.5-0.4,2-0.9
	c0.6-0.5,1.1-1.2,1.5-1.9c0.2-0.4,0.3-0.8,0.3-1.3c0.4,0.2,0.9,0.2,1.4,0.1c0.4-0.1,0.8-0.4,1.1-0.8l0.3-0.4l0.2-0.4
	c0.1,0.1,0.3,0.2,0.5,0.3c0.4,0.3,0.4,0.7,0,1.4c-0.1,0.1-0.2,0.4-0.5,0.8s-0.5,0.7-0.6,1c-0.1,0.2-0.2,0.4-0.3,0.6
	c-0.2,0.6-0.2,1,0.1,1.3c0.4,0.4,1.1,0.3,2.1-0.5c0.5-0.5,1-1,1.4-1.6c-0.1,0.2-0.1,0.3-0.1,0.5c-0.2,1.1,0.1,1.7,0.9,1.7
	c0.3,0,0.6-0.1,0.9-0.3c0.3-0.1,0.5-0.3,0.7-0.5c0.2-0.2,0.4-0.4,0.7-0.7l0.3-0.3c-0.1,0.2-0.1,0.4-0.2,0.7c-0.1,0.3,0,0.6,0.1,0.9
	c0.2,0.3,0.5,0.4,0.9,0.3c0.8,0,1.8-0.8,2.8-2.4c-0.1,0.3-0.2,0.5-0.3,0.8c-0.2,0.4-0.2,0.9,0,1.3c0.2,0.3,0.5,0.4,0.8,0.2
	c0.4-0.1,0.8-0.4,1.1-0.7c0.2-0.2,0.5-0.5,0.8-0.9l0.8-0.9C65,67.4,65,67.3,64.9,67.3L64.9,67.3z M40.9,67.3L40.9,67.3
	c0,0-0.2,0.3-0.6,0.7c-0.4,0.5-0.9,1-1.5,1.3c-0.2,0.2-0.5,0.2-0.7,0.1c-0.4-0.2-0.3-0.9,0.2-2.1c0.4-0.8,0.9-1.7,1.5-2.8h2.5
	C41.7,65.3,41.3,66.3,40.9,67.3C40.9,67.2,40.9,67.2,40.9,67.3L40.9,67.3z M48.1,67.5L48.1,67.5c-0.3,0.6-0.7,1.1-1.2,1.6
	c-0.5,0.5-1,0.7-1.4,0.6c-0.3-0.1-0.5-0.4-0.4-0.9c0.2-1.3,0.8-2.4,1.7-3.4c0.3-0.4,0.7-0.6,1.2-0.7c0.2,0.4,0.4,0.7,0.7,1
	C48.6,66.3,48.4,66.9,48.1,67.5L48.1,67.5z"/>
</svg>
